<?xml version="1.0" encoding="UTF-8" standalone="no"?>
<!-- Created with Inkscape (http://www.inkscape.org/) -->

<svg
   xmlns:dc="http://purl.org/dc/elements/1.1/"
   xmlns:cc="http://creativecommons.org/ns#"
   xmlns:rdf="http://www.w3.org/1999/02/22-rdf-syntax-ns#"
   xmlns:svg="http://www.w3.org/2000/svg"
   xmlns="http://www.w3.org/2000/svg"
   xmlns:sodipodi="http://sodipodi.sourceforge.net/DTD/sodipodi-0.dtd"
   xmlns:inkscape="http://www.inkscape.org/namespaces/inkscape"
   width="2138.3054mm"
   height="1123.9999mm"
   viewBox="0 0 2138.3054 1123.9999"
   version="1.1"
   id="svg8"
   inkscape:version="0.92.3 (2405546, 2018-03-11)"
   sodipodi:docname="splash.svg"
   inkscape:export-filename="/home/hannes/Projects/name-it/public/splash.png"
   inkscape:export-xdpi="28.508556"
   inkscape:export-ydpi="28.508556">
  <defs
     id="defs2" />
  <sodipodi:namedview
     id="base"
     pagecolor="#ffffff"
     bordercolor="#666666"
     borderopacity="1.0"
     inkscape:pageopacity="0.0"
     inkscape:pageshadow="2"
     inkscape:zoom="0.11313709"
     inkscape:cx="6277.9064"
     inkscape:cy="2233.5142"
     inkscape:document-units="mm"
     inkscape:current-layer="layer1"
     showgrid="false"
     inkscape:window-width="1920"
     inkscape:window-height="1020"
     inkscape:window-x="0"
     inkscape:window-y="0"
     inkscape:window-maximized="1"
     fit-margin-top="50"
     fit-margin-left="50"
     fit-margin-right="50"
     fit-margin-bottom="50"
     inkscape:pagecheckerboard="false"
     showborder="true"
     showguides="false">
    <inkscape:grid
       type="xygrid"
       id="grid815"
       originx="43.385463"
       originy="-144.46866" />
  </sodipodi:namedview>
  <metadata
     id="metadata5">
    <rdf:RDF>
      <cc:Work
         rdf:about="">
        <dc:format>image/svg+xml</dc:format>
        <dc:type
           rdf:resource="http://purl.org/dc/dcmitype/StillImage" />
        <dc:title />
      </cc:Work>
    </rdf:RDF>
  </metadata>
  <g
     inkscape:label="Layer 1"
     inkscape:groupmode="layer"
     id="layer1"
     transform="translate(43.385464,971.46863)">
    <path
       style="fill:#ba68c8;fill-opacity:0.78431373;stroke:none;stroke-width:2.83842492;stroke-linecap:round;stroke-linejoin:bevel;stroke-miterlimit:4;stroke-dasharray:22.7074015, 22.7074015;stroke-dashoffset:0;stroke-opacity:1;paint-order:normal"
       d="M 1441.1113 1441.1113 L 2807.0762 2807.0781 L 3262.3984 2807.0781 L 3660.8047 2465.5859 L 4059.2109 2124.0957 L 3660.8047 1782.6035 L 3262.3984 1441.1113 L 1441.1113 1441.1113 z M 3258.9316 1895.3652 A 227.66093 227.66093 0 0 1 3486.5938 2123.0254 A 227.66093 227.66093 0 0 1 3258.9316 2350.6875 A 227.66093 227.66093 0 0 1 3031.2715 2123.0254 A 227.66093 227.66093 0 0 1 3258.9316 1895.3652 z "
       transform="matrix(0.26458333,0,0,0.26458333,-43.385464,-971.46863)"
       id="rect817" />
    <path
       style="fill:#64b5f6;fill-opacity:0.78431373;stroke:none;stroke-width:2.83842492;stroke-linecap:round;stroke-linejoin:bevel;stroke-miterlimit:4;stroke-dasharray:22.7074015, 22.7074015;stroke-dashoffset:0;stroke-opacity:1;paint-order:normal"
       d="M 2124.0957 188.97656 L 1782.6035 587.38281 L 1441.1113 985.78906 L 1441.1113 2807.0781 L 2807.0781 1441.1113 L 2807.0781 985.78906 L 2465.5859 587.38281 L 2124.0957 188.97656 z M 2123.0254 761.5957 A 227.66093 227.66093 0 0 1 2350.6875 989.25781 A 227.66093 227.66093 0 0 1 2123.0254 1216.918 A 227.66093 227.66093 0 0 1 1895.3652 989.25781 A 227.66093 227.66093 0 0 1 2123.0254 761.5957 z "
       transform="matrix(0.26458333,0,0,0.26458333,-43.385464,-971.46863)"
       id="path881" />
    <path
       style="fill:#4db6ac;fill-opacity:0.78431373;stroke:none;stroke-width:2.83842492;stroke-linecap:round;stroke-linejoin:bevel;stroke-miterlimit:4;stroke-dasharray:22.7074015, 22.7074015;stroke-dashoffset:0;stroke-opacity:1;paint-order:normal"
       d="M 985.78906 1441.1113 L 587.38281 1782.6035 L 188.97656 2124.0938 L 587.38281 2465.5859 L 985.78906 2807.0762 L 985.78906 2807.0781 L 2807.0781 2807.0781 L 1441.1113 1441.1113 L 985.78906 1441.1113 z M 989.25781 1897.502 A 227.66093 227.66093 0 0 1 1216.918 2125.1641 A 227.66093 227.66093 0 0 1 989.25781 2352.8242 A 227.66093 227.66093 0 0 1 761.5957 2125.1641 A 227.66093 227.66093 0 0 1 989.25781 1897.502 z "
       transform="matrix(0.26458333,0,0,0.26458333,-43.385464,-971.46863)"
       id="path899" />
    <path
       style="fill:#ffb74d;fill-opacity:0.78431373;stroke:none;stroke-width:2.83842492;stroke-linecap:round;stroke-linejoin:bevel;stroke-miterlimit:4;stroke-dasharray:22.7074015, 22.7074015;stroke-dashoffset:0;stroke-opacity:1;paint-order:normal"
       d="M 2807.0781 1441.1113 L 1441.1113 2807.0762 L 1441.1113 3262.3984 L 1782.6035 3660.8047 L 2124.0957 4059.2129 L 2465.5859 3660.8047 L 2807.0781 3262.3984 L 2807.0781 1441.1113 z M 2125.1641 3031.2715 A 227.66093 227.66093 0 0 1 2352.8242 3258.9316 A 227.66093 227.66093 0 0 1 2125.1641 3486.5918 A 227.66093 227.66093 0 0 1 1897.502 3258.9316 A 227.66093 227.66093 0 0 1 2125.1641 3031.2715 z "
       transform="matrix(0.26458333,0,0,0.26458333,-43.385464,-971.46863)"
       id="path907" />
    <text
       xml:space="preserve"
       style="font-style:normal;font-variant:normal;font-weight:normal;font-stretch:normal;font-size:260.59768677px;line-height:1.25;font-family:Roboto;-inkscape-font-specification:Roboto;letter-spacing:0px;word-spacing:0px;fill:#000000;fill-opacity:1;stroke:none;stroke-width:0.26458329"
       x="891.60583"
       y="21.600866"
       id="text843"><tspan
         sodipodi:role="line"
         id="tspan841"
         x="891.60583"
         y="21.600866"
         style="stroke-width:0.26458329"><tspan
   style="font-style:normal;font-variant:normal;font-weight:900;font-stretch:normal;font-size:260.5982666px;font-family:Roboto;-inkscape-font-specification:'Roboto, Heavy';font-variant-ligatures:normal;font-variant-caps:normal;font-variant-numeric:normal;font-feature-settings:normal;text-align:start;writing-mode:lr-tb;text-anchor:start;stroke-width:0.26458329"
   id="tspan845">NAME</tspan>IT</tspan></text>
    <g
       inkscape:export-ydpi="72.279999"
       inkscape:export-xdpi="72.279999"
       transform="matrix(0,-22.766094,22.766094,0,81.903816,548.18509)"
       id="g851"
       style="fill:#64b5f6;fill-opacity:0.78431373;stroke-width:0.04392497" />
    <path
       style="fill:#64b5f6;fill-opacity:0.78431373;stroke:none;stroke-width:2.83842516;stroke-linecap:round;stroke-linejoin:bevel;stroke-miterlimit:4;stroke-dasharray:22.70740161, 22.70740161;stroke-dashoffset:0;stroke-opacity:1;paint-order:normal"
       d="M 7363.9785 2972.8887 L 7322.5488 3125.9492 L 7281.1172 3279.0078 L 7405.1094 3219.9863 A 68.796408 68.796408 0 0 1 7438.0605 3129.2695 A 68.796408 68.796408 0 0 1 7529.748 3161.8164 A 68.796408 68.796408 0 0 1 7497.1992 3253.5039 A 68.796408 68.796408 0 0 1 7405.5117 3220.9551 A 68.796408 68.796408 0 0 1 7405.1094 3219.9863 L 7281.1172 3279.0098 L 7520.1016 3781.0566 L 7892.8086 3603.6406 L 7653.8242 3101.5938 L 7508.9023 3037.2402 L 7363.9785 2972.8887 z "
       transform="matrix(0.26458333,0,0,0.26458333,-43.385464,-971.46863)"
       id="rect869" />
  </g>
</svg>
